<svg height="512pt" viewBox="0 0 512 512.00035" width="512pt" xmlns="http://www.w3.org/2000/svg"><path d="m452.660156 235.996094c-7.71875 0-11.558594 0-19.265625 0l-.054687-176.683594c-.007813-32.703125-26.625-59.3125-59.34375-59.3125s-59.332032 26.617188-59.332032 59.332031c0 11.046875 8.953126 20 20 20 11.042969 0 20-8.953125 20-20 0-10.660156 8.671876-19.332031 19.34375-19.332031 10.65625 0 19.332032 8.667969 19.332032 19.328125l.054687 176.667969h-334.0625c-32.714843 0-59.332031 26.617187-59.332031 59.335937 0 11.042969 8.953125 19.996094 20 19.996094s20-8.953125 20-19.996094c0-10.664062 8.671875-19.335937 19.332031-19.335937 10.660157 0 19.332031 8.675781 19.332031 19.335937v39.765625c0 43.011719 23.160157 80.710938 57.65625 101.304688l-23.257812 46.671875c-6.660156 13.363281 3.175781 28.925781 17.882812 28.925781 7.347657 0 14.417969-4.0625 17.917969-11.082031l24.980469-50.128907c7.355469 1.445313 14.949219 2.207032 22.722656 2.207032h118.53125c7.789063 0 15.460938-.753906 22.9375-2.21875l25.066406 50.160156c4.9375 9.878906 16.953126 13.886719 26.832032 8.949219s13.886718-16.953125 8.949218-26.832031l-23.332031-46.683594c34.46875-20.65625 57.59375-58.285156 57.445313-101.675782.179687-19.175781-.074219-18.199218.414062-42.039062 1.316406-9.390625 9.398438-16.65625 19.128906-16.65625h.125c10.660157 0 19.332032 8.671875 19.332032 19.332031 0 11.046875 8.953125 20 20 20s20-8.953125 20-20c0-32.71875-26.617188-59.335937-59.335938-59.335937zm-59.664062 98.578125v.191406c.183594 43.175781-34.710938 78.230469-77.898438 78.230469h-118.535156c-42.953125 0-77.898438-34.945313-77.898438-77.898438-.765624-35.179687 1.976563-43.984375-3.25-59.101562h277.992188c-.078125 11.40625-.328125 47.183594-.410156 58.578125zm0 0"/></svg>