<svg height="511pt" viewBox="0 0 511.99969 511" width="511pt" xmlns="http://www.w3.org/2000/svg"><path d="m2.117188 147.441406c-4.941407-9.878906-.9375-21.890625 8.941406-26.832031l235.996094-118c5.632812-2.8125 12.257812-2.8125 17.890624 0l235.996094 118c9.878906 4.941406 13.882813 16.953125 8.941406 26.832031-4.917968 9.839844-16.914062 13.902344-26.832031 8.945313l-227.050781-113.527344-227.050781 113.527344c-9.882813 4.941406-21.894531.933593-26.832031-8.945313zm509.878906 345.050782c0 11.046874-8.957032 20-20 20h-471.992188c-11.046875 0-19.99999975-8.953126-19.99999975-20 0-11.046876 8.95312475-20 19.99999975-20h97.996094v-38.667969h-58.664062c-11.046876 0-20-8.953125-20-20v-55.84375c0-31.113281 16.5625-60.03125 42.855468-75.96875l36.835938-110.507813c2.722656-8.164062 10.363281-13.671875 18.972656-13.671875h235.996094c8.609375 0 16.25 5.507813 18.976562 13.671875l36.832032 110.507813c26.296874 15.9375 42.859374 44.855469 42.859374 75.96875v55.84375c0 11.046875-8.957031 20-20 20h-58.667968v38.667969h98c11.042968 0 20 8.953124 20 20zm-385.578125-216.664063h259.164062l-26-78h-207.167969zm-47.082031 118h353.328124v-35.847656c0-17.371094-9.402343-33.492188-24.257812-42.152344h-304.8125c-14.855469 8.660156-24.257812 24.78125-24.257812 42.152344zm78.664062 78.664063h195.996094v-38.667969h-195.996094zm0 0"/></svg>