<svg height="512pt" viewBox="0 0 512 512" width="512pt" xmlns="http://www.w3.org/2000/svg"><path d="m512 50v412c0 27.570312-22.429688 50-50 50h-48.667969c-11.046875 0-20-8.953125-20-20s8.953125-20 20-20h48.667969c5.515625 0 10-4.484375 10-10v-184.988281h-176.667969c-11.046875 0-20-8.953125-20-20s8.953125-20 20-20h176.667969v-187.011719c0-5.515625-4.484375-10-10-10h-225.925781v58.667969c0 11.046875-8.957031 20-20 20-11.046875 0-20-8.953125-20-20v-58.667969h-146.074219c-5.515625 0-10 4.484375-10 10v186h156.074219v-58.667969c0-11.046875 8.953125-20 20-20 11.042969 0 20 8.953125 20 20v157.332031c0 11.046876-8.957031 20-20 20-11.046875 0-20-8.953124-20-20v-58.664062h-156.074219v186c0 5.515625 4.484375 10 10 10h146.074219v-58.667969c0-11.046875 8.953125-20 20-20 11.042969 0 20 8.953125 20 20v58.667969h98.589843c11.046876 0 20 8.953125 20 20s-8.953124 20-20 20h-284.664062c-27.570312 0-50-22.429688-50-50v-412c0-27.570312 22.429688-50 50-50h412c27.570312 0 50 22.429688 50 50zm0 0"/></svg>