<svg height="512pt" viewBox="0 0 512 512" width="512pt" xmlns="http://www.w3.org/2000/svg"><path d="m492 157.332031h-137.332031v-137.332031c0-11.046875-8.953125-20-20-20h-314.667969c-11.046875 0-20 8.953125-20 20v472c0 11.046875 8.953125 20 20 20h472c11.046875 0 20-8.953125 20-20v-314.667969c0-11.042969-8.953125-20-20-20zm-452-117.332031h274.667969v432h-274.667969zm432 432h-117.332031v-274.667969h117.332031zm-314-373.332031c0 11.046875-8.953125 20-20 20h-39.332031c-11.046875 0-20-8.953125-20-20s8.953125-20 20-20h39.332031c11.046875 0 20 8.953125 20 20zm0 118c0 11.046875-8.953125 20-20 20h-39.332031c-11.046875 0-20-8.953125-20-20s8.953125-20 20-20h39.332031c11.046875 0 20 8.953125 20 20zm0 118c0 11.046875-8.953125 20-20 20h-39.332031c-11.046875 0-20-8.953125-20-20s8.953125-20 20-20h39.332031c11.046875 0 20 8.953125 20 20zm118-236c0 11.046875-8.953125 20-20 20h-39.332031c-11.046875 0-20-8.953125-20-20s8.953125-20 20-20h39.332031c11.046875 0 20 8.953125 20 20zm0 118c0 11.046875-8.953125 20-20 20h-39.332031c-11.046875 0-20-8.953125-20-20s8.953125-20 20-20h39.332031c11.046875 0 20 8.953125 20 20zm0 118c0 11.046875-8.953125 20-20 20h-39.332031c-11.046875 0-20-8.953125-20-20s8.953125-20 20-20h39.332031c11.046875 0 20 8.953125 20 20zm97.667969-78.667969c0-11.046875 8.953125-20 20-20h39.332031c11.046875 0 20 8.953125 20 20s-8.953125 20-20 20h-39.332031c-11.046875 0-20-8.953125-20-20zm0 78.667969c0-11.046875 8.953125-20 20-20h39.332031c11.046875 0 20 8.953125 20 20s-8.953125 20-20 20h-39.332031c-11.046875 0-20-8.957031-20-20zm0 0"/></svg>