<svg height="512pt" viewBox="0 -59 512 512" width="512pt" xmlns="http://www.w3.org/2000/svg"><path d="m472.667969 197.867188v-176.589844c0-11.046875-8.953125-20-20-20s-20 8.953125-20 20v36.679687c-104.597657-77.265625-248.707031-77.289062-353.335938 0v-37.914062c0-11.046875-8.953125-20.0000002-20-20.0000002s-20 8.9531252-20 20.0000002v177.824219c-22.460937 4.902343-39.332031 24.933593-39.332031 48.84375v88c0 11.046874 8.953125 20 20 20h39v19.332031c0 11.046875 8.953125 20 20 20s20-8.953125 20-20v-19.332031h314v19.332031c0 11.046875 8.953125 20 20 20s20-8.953125 20-20v-19.332031h39c11.046875 0 20-8.953126 20-20v-88c0-23.910157-16.871094-43.941407-39.332031-48.84375zm-40-87.878907v86.71875h-78v-58.664062c0-11.046875-8.953125-20-20-20h-157.335938c-11.046875 0-20 8.953125-20 20v58.664062h-78v-86.71875c98.519531-92.632812 253.390625-93.972656 353.335938 0zm-235.335938 86.722657v-38.667969h117.335938v38.667969zm274.667969 118h-432v-68c0-5.515626 4.484375-10 10-10h412c5.515625 0 10 4.484374 10 10zm0 0"/></svg>