<svg height="512pt" viewBox="0 -59 512 512" width="512pt" xmlns="http://www.w3.org/2000/svg"><path d="m256 9.128906c-126.609375-39.703125-256 55.128906-256 188 0 132.628906 129.21875 227.761719 256 188 126.605469 39.703125 256-55.128906 256-188 0-132.632812-129.21875-227.757812-256-188zm-216 188c0-108.207031 107.480469-184.070312 209.335938-148.074218 62.601562 22.132812 104.664062 81.636718 104.664062 148.074218s-42.0625 125.941406-104.664062 148.074219c-102.035157 36.054687-209.335938-40.046875-209.335938-148.074219zm276.027344 156.988282c103.796875-78.90625 103.957031-234.949219 0-313.976563 86.097656.558594 155.972656 70.761719 155.972656 156.988281 0 86.226563-69.875 156.429688-155.972656 156.988282zm-99.027344-61.800782v3.480469c0 11.042969-8.953125 20-20 20s-20-8.957031-20-20v-3.441406c-8.164062-2.914063-15.644531-7.628907-21.957031-13.941407-7.808594-7.808593-7.808594-20.472656.003906-28.28125 7.8125-7.808593 20.472656-7.8125 28.285156 0 12.144531 12.148438 33 3.441407 33-13.671874 0-10.660157-8.671875-19.332032-19.332031-19.332032-32.71875 0-59.332031-26.617187-59.332031-59.332031 0-25.703125 16.425781-47.628906 39.332031-55.855469v-3.480468c0-11.042969 8.953125-20 20-20s20 8.957031 20 20v3.441406c8.164062 2.914062 15.644531 7.628906 21.957031 13.941406 7.808594 7.808594 7.808594 20.472656-.003906 28.28125-7.8125 7.8125-20.472656 7.8125-28.285156 0-12.144531-12.144531-33-3.441406-33 13.671875 0 10.660156 8.671875 19.332031 19.332031 19.332031 32.71875 0 59.332031 26.617188 59.332031 59.332032 0 25.703124-16.425781 47.628906-39.332031 55.855468zm0 0"/></svg>